<?xml version="1.0" standalone="no"?>
<!DOCTYPE svg PUBLIC "-//W3C//DTD SVG 20010904//EN"
 "http://www.w3.org/TR/2001/REC-SVG-20010904/DTD/svg10.dtd">
<svg version="1.0" xmlns="http://www.w3.org/2000/svg"
 width="736.000000pt" height="736.000000pt" viewBox="0 0 736.000000 736.000000"
 preserveAspectRatio="xMidYMid meet">

<g transform="translate(0.000000,736.000000) scale(0.100000,-0.100000)"
fill="#000000" stroke="none">
<path d="M3550 5763 c-104 -6 -275 -34 -386 -63 -640 -166 -1163 -622 -1417
-1235 -102 -248 -150 -497 -150 -785 0 -469 137 -879 422 -1260 69 -93 242
-273 337 -351 232 -190 516 -334 808 -409 209 -54 288 -62 719 -67 l397 -5 0
605 c0 477 -3 605 -12 604 -7 0 -340 1 -740 1 l-728 2 0 880 0 880 1470 1
c809 1 1476 2 1483 3 9 1 12 128 12 601 l0 600 -1080 1 c-594 0 -1105 -1
-1135 -3z"/>
<path d="M3080 3680 l0 -600 743 -2 742 -3 3 -743 2 -742 598 2 597 3 3 1343
2 1342 -1345 0 -1345 0 0 -600z"/>
</g>
</svg>
