<?xml version="1.0" standalone="no"?>
<!DOCTYPE svg PUBLIC "-//W3C//DTD SVG 20010904//EN"
 "http://www.w3.org/TR/2001/REC-SVG-20010904/DTD/svg10.dtd">
<svg version="1.0" xmlns="http://www.w3.org/2000/svg"
 width="736.000000pt" height="736.000000pt" viewBox="188.86 172.29 391.97 391.97"
 preserveAspectRatio="xMidYMid meet">

<g transform="translate(0.000000,736.000000) scale(0.100000,-0.100000)"
fill="#000000" stroke="none">
<path d="M2495 5298 c-3 -7 -4 -209 -3 -448 l3 -435 836 -5 c819 -5 837 -5
860 -25 80 -68 87 -165 17 -232 -29 -27 -109 -56 -588 -213 -305 -100 -683
-224 -840 -275 l-285 -94 0 -763 0 -763 540 0 540 0 3 485 3 485 342 113 c188
62 405 135 482 162 391 139 572 281 700 551 135 286 133 616 -4 904 -128 268
-351 456 -636 537 l-80 23 -943 3 c-762 2 -943 0 -947 -10z"/>
</g>
</svg>
