<?xml version="1.0" standalone="no"?>
<!DOCTYPE svg PUBLIC "-//W3C//DTD SVG 20010904//EN"
 "http://www.w3.org/TR/2001/REC-SVG-20010904/DTD/svg10.dtd">
<svg version="1.0" xmlns="http://www.w3.org/2000/svg"
 width="626.000000pt" height="626.000000pt" viewBox="0 0 626.000000 626.000000"
 preserveAspectRatio="xMidYMid meet">

<g transform="translate(0.000000,626.000000) scale(0.100000,-0.100000)"
fill="#000000" stroke="none">
<path d="M1733 4336 c3 -7 43 -78 89 -157 46 -79 138 -237 203 -352 66 -114
123 -206 128 -204 4 1 90 144 191 317 l182 315 136 3 137 3 -141 -243 c-217
-375 -257 -449 -273 -501 -66 -221 34 -466 232 -569 92 -48 141 -57 328 -62
88 -3 163 -5 167 -5 3 -1 -54 -105 -128 -233 -74 -128 -134 -236 -134 -241 0
-11 274 -487 280 -487 3 0 34 51 69 113 36 61 114 198 175 302 204 354 216
377 233 461 48 235 -87 473 -315 557 -47 17 -88 22 -244 26 l-186 6 70 120
c121 206 381 658 407 707 l26 48 133 0 c72 0 132 -2 132 -6 0 -5 -278 -492
-341 -597 l-29 -47 426 2 426 3 96 165 c52 91 144 249 204 352 60 103 111 194
114 203 6 13 -147 15 -1396 15 -1187 0 -1401 -2 -1397 -14z"/>
</g>
</svg>
