<?xml version="1.0" standalone="no"?>
<!DOCTYPE svg PUBLIC "-//W3C//DTD SVG 20010904//EN"
 "http://www.w3.org/TR/2001/REC-SVG-20010904/DTD/svg10.dtd">
<svg version="1.0" xmlns="http://www.w3.org/2000/svg"
 width="736.000000pt" height="736.000000pt" viewBox="75.98 82.58 572.83 572.83"
 preserveAspectRatio="xMidYMid meet">

<g transform="translate(0.000000,736.000000) scale(0.100000,-0.100000)"
fill="#000000" stroke="none">
<path d="M3580 6054 c-19 -2 -93 -9 -165 -15 -447 -37 -917 -130 -1437 -285
-17 -5 -18 -46 -18 -670 0 -365 2 -664 5 -664 2 0 48 31 102 68 753 527 1707
877 2478 909 383 15 676 -64 772 -209 23 -33 28 -55 31 -114 4 -61 0 -81 -21
-128 -34 -73 -103 -145 -202 -211 -203 -134 -441 -224 -1245 -469 -585 -178
-887 -286 -1185 -423 -875 -403 -1243 -938 -1134 -1647 45 -287 208 -551 434
-701 188 -124 366 -183 626 -205 367 -32 757 76 1101 306 146 98 227 164 367
299 376 364 701 832 1040 1499 50 99 93 181 95 183 3 3 107 -35 114 -42 6 -6
-93 -217 -185 -395 -99 -192 -174 -326 -373 -665 -201 -342 -290 -504 -376
-680 -75 -155 -141 -317 -158 -387 l-6 -28 685 0 685 0 0 1405 0 1405 -157 0
-158 -1 -107 -217 c-284 -574 -596 -1020 -927 -1325 -286 -263 -588 -395 -851
-373 -317 26 -506 240 -462 522 21 133 88 256 208 384 189 200 457 360 1149
685 674 317 926 466 1136 675 58 58 124 134 147 170 144 223 155 491 29 735
-51 98 -185 239 -295 310 -206 132 -499 226 -862 276 -127 17 -217 21 -500 24
-190 2 -361 1 -380 -1z"/>
</g>
</svg>
