<?xml version="1.0" standalone="no"?>
<!DOCTYPE svg PUBLIC "-//W3C//DTD SVG 20010904//EN"
 "http://www.w3.org/TR/2001/REC-SVG-20010904/DTD/svg10.dtd">
<svg version="1.0" xmlns="http://www.w3.org/2000/svg"
 width="612.000000pt" height="612.000000pt" viewBox="0 0 612.000000 612.000000"
 preserveAspectRatio="xMidYMid meet">

<g transform="translate(0.000000,612.000000) scale(0.100000,-0.100000)"
fill="#000000" stroke="none">
<path d="M4420 4640 c-36 -9 -474 -107 -720 -160 -74 -16 -400 -88 -725 -159
-707 -156 -1168 -257 -1213 -266 -26 -5 -32 -11 -27 -25 8 -26 -14 -96 -37
-117 -18 -16 -22 -16 -46 -2 -24 13 -65 64 -74 91 -3 7 -64 -2 -183 -28 -144
-31 -189 -45 -225 -69 -63 -42 -106 -104 -120 -170 -11 -52 -8 -70 35 -268 25
-117 60 -279 77 -361 l32 -150 18 59 c32 107 105 189 206 231 l57 24 1697 0
c1842 0 1743 3 1821 -52 l27 -19 0 28 c0 16 -18 109 -39 208 -169 776 -214
976 -226 1020 -17 60 -70 125 -131 161 -50 29 -143 40 -204 24z"/>
<path d="M2047 3192 c-9 -2 -17 -12 -17 -23 0 -24 -16 -56 -41 -84 -9 -11 -19
-38 -21 -60 -2 -22 -7 -40 -13 -40 -5 0 -11 18 -13 40 -2 22 -12 49 -21 60
-26 28 -41 60 -41 84 0 21 -4 21 -202 21 -176 0 -208 -3 -244 -19 -51 -23
-104 -75 -130 -127 -18 -37 -19 -69 -22 -703 l-2 -665 25 -53 c15 -29 45 -69
68 -88 65 -56 116 -66 322 -63 l179 3 7 32 c3 18 18 48 33 67 17 23 26 47 26
70 0 20 4 36 9 36 11 0 21 -25 21 -51 0 -11 12 -36 26 -55 15 -19 30 -49 33
-67 l7 -32 1424 0 1425 0 40 22 c54 28 119 100 136 149 11 32 14 162 14 694
l0 655 -24 45 c-30 58 -66 97 -116 123 l-40 22 -1416 5 c-778 3 -1423 4 -1432
2z m-77 -367 c0 -59 -8 -88 -21 -79 -10 6 -12 127 -3 137 15 15 24 -7 24 -58z
m-5 -253 c0 -85 -19 -84 -23 1 -2 53 0 68 10 65 9 -3 13 -25 13 -66z m3 -222
c4 -52 -5 -93 -18 -85 -16 10 -13 138 3 133 6 -3 13 -24 15 -48z m0 -240 c4
-52 -5 -93 -18 -85 -16 10 -13 138 3 133 6 -3 13 -24 15 -48z m-3 -260 c0 -42
-4 -65 -12 -67 -10 -4 -13 14 -13 67 0 53 3 71 13 68 8 -3 12 -26 12 -68z"/>
</g>
</svg>
