<?xml version="1.0" standalone="no"?>
<!DOCTYPE svg PUBLIC "-//W3C//DTD SVG 20010904//EN"
 "http://www.w3.org/TR/2001/REC-SVG-20010904/DTD/svg10.dtd">
<svg version="1.0" xmlns="http://www.w3.org/2000/svg"
 width="736.000000pt" height="735.000000pt" viewBox="0 0 736.000000 735.000000"
 preserveAspectRatio="xMidYMid meet">

<g transform="translate(0.000000,735.000000) scale(0.100000,-0.100000)"
fill="#000000" stroke="none">
<path d="M1770 5134 c-263 -18 -541 -66 -760 -129 -137 -40 -140 -41 -140 -57
0 -5 45 -132 101 -282 55 -149 114 -309 131 -354 27 -74 33 -83 52 -79 11 2
66 17 121 31 370 100 820 114 1130 36 44 -11 86 -22 93 -25 7 -3 -47 -62 -131
-144 -360 -351 -599 -708 -678 -1013 -30 -115 -36 -281 -15 -373 45 -191 164
-339 341 -425 110 -54 180 -71 315 -77 349 -16 747 166 1074 490 190 188 308
361 401 587 98 240 110 546 30 779 -14 41 -23 76 -21 79 11 10 240 82 316 98
117 26 367 26 460 0 222 -60 348 -194 397 -421 27 -127 22 -595 -7 -595 -5 0
-68 88 -140 195 l-131 195 -322 -216 c-177 -119 -323 -217 -325 -219 -1 -1
192 -292 429 -646 237 -354 443 -663 458 -686 14 -23 30 -43 35 -43 8 0 214
95 616 282 47 22 166 78 265 123 399 184 678 314 682 319 2 2 -30 75 -70 162
-41 88 -114 245 -162 349 -49 105 -90 192 -91 194 -4 5 -65 -22 -298 -131 -93
-43 -171 -77 -173 -74 -3 2 2 49 11 103 58 365 36 746 -59 1028 -126 377 -406
663 -780 798 -157 56 -296 80 -498 85 -207 5 -316 -5 -497 -45 -194 -43 -426
-126 -611 -218 l-65 -33 -70 40 c-252 148 -572 254 -884 293 -125 15 -427 26
-530 19z m1329 -1437 c-40 -215 -269 -480 -527 -611 -30 -15 -56 -25 -59 -22
-7 7 97 164 165 250 70 88 241 266 345 357 42 38 79 69 81 69 2 0 0 -19 -5
-43z"/>
</g>
</svg>
