<?xml version="1.0" standalone="no"?>
<!DOCTYPE svg PUBLIC "-//W3C//DTD SVG 20010904//EN"
 "http://www.w3.org/TR/2001/REC-SVG-20010904/DTD/svg10.dtd">
<svg version="1.0" xmlns="http://www.w3.org/2000/svg"
 width="736.000000pt" height="920.000000pt" viewBox="0 0 736.000000 920.000000"
 preserveAspectRatio="xMidYMid meet">

<g transform="translate(0.000000,920.000000) scale(0.100000,-0.100000)"
fill="#000000" stroke="none">
<path d="M4165 6649 c-104 -4 -330 -13 -502 -19 l-312 -11 -73 -33 c-40 -19
-190 -87 -333 -151 -143 -65 -266 -123 -273 -129 -7 -7 -60 -206 -117 -442
-58 -236 -112 -456 -120 -488 -8 -32 -11 -64 -8 -70 4 -6 35 -50 70 -98 52
-71 70 -88 96 -93 185 -32 501 -74 512 -68 7 5 92 86 190 181 97 94 182 172
190 172 12 0 165 -67 174 -76 3 -3 -75 -85 -172 -182 l-177 -178 0 -120 c0
-65 -5 -328 -11 -584 l-10 -465 -110 -340 c-61 -187 -114 -353 -119 -369 -9
-25 -6 -32 21 -57 25 -24 123 -96 216 -159 12 -8 115 -82 230 -164 114 -82
216 -151 226 -154 10 -3 57 14 105 36 48 22 186 86 307 142 121 55 225 107
230 114 8 10 -5 233 -42 737 -28 398 -52 745 -53 771 l0 47 139 101 c76 55
146 109 154 118 9 10 87 182 173 382 l157 365 8 400 8 400 -52 50 c-123 117
-429 398 -461 423 -16 12 -38 21 -50 20 -11 0 -106 -5 -211 -9z m-270 -264
c192 -19 366 -40 385 -45 27 -8 50 -30 105 -102 39 -50 123 -159 188 -241 73
-93 116 -155 113 -166 -3 -9 -53 -221 -111 -471 -59 -250 -112 -461 -119 -468
-7 -7 -102 -56 -212 -108 -109 -53 -200 -97 -201 -98 -2 -2 -9 -179 -17 -396
-8 -216 -18 -396 -23 -401 -4 -4 -110 -11 -235 -15 -211 -7 -228 -6 -234 10
-4 10 1 217 10 459 9 243 16 452 16 463 0 21 60 70 502 407 l117 89 5 61 c3
34 10 161 16 281 l11 220 -93 93 c-51 51 -98 93 -104 93 -33 0 -578 -140 -589
-152 -7 -7 -47 -74 -88 -148 -41 -74 -99 -178 -129 -230 l-53 -95 -120 -3
c-66 -2 -162 0 -213 3 -76 6 -94 10 -102 26 -8 14 14 93 95 346 58 180 111
339 118 352 9 19 62 46 247 123 129 55 260 110 290 123 30 13 59 24 65 24 5 1
167 -15 360 -34z m107 -2826 c156 -93 141 -60 133 -299 -5 -132 -11 -209 -19
-216 -6 -7 -90 -42 -186 -78 l-174 -67 -176 72 c-189 78 -200 84 -200 106 0 9
45 90 100 181 l100 166 0 86 c0 54 5 91 12 98 8 8 58 12 160 12 l147 0 103
-61z"/>
<path d="M4089 473 c-3 -23 -6 -52 -7 -80 -3 -44 -14 -41 -41 7 -12 22 -26 40
-30 40 -8 0 -23 -141 -16 -148 10 -10 25 12 25 38 0 42 12 43 39 4 13 -19 28
-31 32 -27 13 14 23 173 10 173 -6 0 -11 -3 -12 -7z"/>
<path d="M3385 420 c-7 -54 -17 -62 -37 -30 -17 27 -32 25 -48 -7 l-13 -28 -7
31 c-12 53 -20 68 -30 58 -7 -7 -7 -21 -1 -40 5 -16 12 -41 15 -56 8 -34 28
-36 49 -5 l16 22 16 -22 c22 -31 43 -29 50 5 4 15 10 45 15 66 5 22 7 43 4 48
-12 19 -23 4 -29 -42z"/>
<path d="M3456 459 c-7 -22 -26 -131 -26 -147 0 -12 3 -12 15 -2 8 7 15 19 15
26 0 19 30 18 52 -3 24 -22 35 -10 16 19 -8 13 -20 40 -27 60 -14 43 -38 68
-45 47z m21 -71 c-3 -8 -6 -5 -6 6 -1 11 2 17 5 13 3 -3 4 -12 1 -19z"/>
<path d="M3584 462 c-19 -13 -34 -50 -34 -86 0 -49 9 -66 34 -66 28 0 46 18
46 47 0 13 5 23 10 23 6 0 10 -18 10 -40 0 -56 17 -50 22 8 5 55 -3 64 -54 55
-32 -5 -38 -3 -38 12 0 9 9 19 20 22 12 3 19 10 17 16 -4 14 -19 18 -33 9z
m14 -109 c-5 -23 -23 -20 -26 4 -3 18 0 21 13 17 9 -4 15 -13 13 -21z"/>
<path d="M3840 441 c0 -10 -7 -36 -16 -57 l-17 -39 -9 28 c-5 15 -13 27 -18
27 -5 0 -13 -12 -18 -27 -10 -28 -10 -28 -32 25 -13 28 -29 52 -36 52 -18 0
-18 -24 -1 -39 8 -6 20 -29 27 -51 18 -54 35 -68 50 -40 11 21 12 21 25 3 18
-24 30 -11 55 61 24 71 24 76 5 76 -8 0 -15 -8 -15 -19z"/>
<path d="M3889 448 c-1 -1 -2 -19 -4 -38 -2 -19 -11 -48 -19 -65 -20 -38 -3
-60 20 -27 20 28 64 30 71 2 7 -25 23 -26 23 -2 -1 34 -84 154 -91 130z m31
-74 c0 -8 -4 -14 -10 -14 -5 0 -10 9 -10 21 0 11 5 17 10 14 6 -3 10 -13 10
-21z"/>
<path d="M3406 232 c7 -4 14 -18 17 -32 l4 -25 2 27 c0 14 7 29 14 31 6 3 -1
6 -18 6 -16 0 -25 -3 -19 -7z"/>
<path d="M3496 224 c-3 -9 -2 -23 4 -32 7 -14 9 -10 10 16 0 35 -5 41 -14 16z"/>
<path d="M3530 210 c0 -22 5 -30 18 -30 9 0 13 4 7 8 -18 13 -16 40 2 45 14 4
13 5 -4 6 -19 1 -23 -4 -23 -29z"/>
<path d="M3622 210 c-11 -29 -10 -31 4 -19 13 10 17 10 25 -2 7 -12 9 -12 9 2
0 8 -6 23 -13 34 -13 17 -15 16 -25 -15z"/>
<path d="M3680 208 c0 -21 3 -28 8 -20 5 7 15 10 24 7 11 -4 14 0 13 17 -1 15
-9 24 -23 26 -19 3 -22 -1 -22 -30z m30 12 c0 -5 -4 -10 -10 -10 -5 0 -10 5
-10 10 0 6 5 10 10 10 6 0 10 -4 10 -10z"/>
<path d="M3750 215 c0 -17 4 -24 11 -19 6 3 15 0 20 -7 7 -10 9 -5 7 16 -4 40
-38 49 -38 10z m30 5 c0 -5 -4 -10 -10 -10 -5 0 -10 5 -10 10 0 6 5 10 10 10
6 0 10 -4 10 -10z"/>
<path d="M3812 210 c0 -19 2 -27 5 -17 2 9 2 25 0 35 -3 9 -5 1 -5 -18z"/>
<path d="M3841 229 c0 -8 5 -24 13 -34 13 -18 14 -18 21 4 4 12 4 25 1 28 -3
4 -6 1 -6 -5 0 -19 -18 -14 -23 6 -4 13 -5 14 -6 1z"/>
<path d="M3910 221 c-13 -26 -13 -27 10 -27 11 0 20 4 20 8 0 4 -4 8 -10 8 -5
0 -7 7 -4 15 9 22 -3 18 -16 -4z"/>
<path d="M3961 213 c-1 -25 3 -33 17 -33 11 0 13 3 6 8 -7 4 -14 18 -17 32 -4
21 -4 20 -6 -7z"/>
<path d="M3460 205 c1 -26 2 -28 11 -12 8 14 8 22 0 30 -8 8 -11 3 -11 -18z"/>
</g>
</svg>
