<?xml version="1.0" standalone="no"?>
<!DOCTYPE svg PUBLIC "-//W3C//DTD SVG 20010904//EN"
 "http://www.w3.org/TR/2001/REC-SVG-20010904/DTD/svg10.dtd">
<svg version="1.0" xmlns="http://www.w3.org/2000/svg"
 width="720.000000pt" height="900.000000pt" viewBox="0 0 720.000000 900.000000"
 preserveAspectRatio="xMidYMid meet">

<g transform="translate(0.000000,900.000000) scale(0.100000,-0.100000)"
fill="#000000" stroke="none">
<path d="M3440 6098 c-784 -313 -1428 -573 -1432 -577 -6 -5 207 -559 227
-592 3 -3 223 81 490 187 524 210 530 211 615 173 57 -26 77 -44 102 -93 11
-22 148 -359 305 -750 157 -391 286 -712 287 -713 0 -1 134 52 296 117 189 76
295 124 294 132 -1 8 -131 337 -289 732 -190 473 -290 735 -293 766 -6 61 31
146 79 183 19 14 243 109 499 211 256 103 471 190 477 194 9 6 -18 84 -103
298 -64 159 -119 292 -122 296 -4 3 -648 -250 -1432 -564z"/>
<path d="M4715 5619 c-186 -64 -305 -231 -305 -428 0 -232 156 -414 385 -451
295 -47 562 219 515 515 -27 170 -143 310 -302 364 -84 28 -210 28 -293 0z"/>
<path d="M2888 4871 c-201 -66 -332 -261 -314 -468 6 -79 41 -176 81 -228 l25
-33 400 160 c365 146 400 162 400 183 0 36 -35 139 -63 187 -38 65 -128 145
-204 181 -60 28 -80 32 -168 34 -77 2 -113 -1 -157 -16z"/>
<path d="M2126 3910 c-148 -59 -276 -112 -285 -117 -12 -8 -8 -23 31 -94 348
-655 1040 -1069 1787 -1069 127 0 332 24 456 54 107 26 274 81 285 93 5 6
-210 572 -225 590 0 2 -39 -10 -86 -26 -157 -54 -237 -66 -434 -66 -136 0
-200 4 -264 18 -385 83 -689 291 -902 615 -26 40 -51 82 -54 92 -4 11 -14 20
-23 19 -9 -1 -138 -49 -286 -109z"/>
</g>
</svg>
